<svg preserveAspectRatio="none" overflow="visible" style="display: block;" width="24" height="24" viewBox="0 0 24 24" fill="none" xmlns="http://www.w3.org/2000/svg">
<g id="Atom">
<path id="Vector" d="M10.5 2C8.4233 2 6.39323 2.61581 4.66652 3.76957C2.9398 4.92332 1.59399 6.5632 0.799269 8.48182C0.00454949 10.4004 -0.203385 12.5116 0.201759 14.5484C0.606904 16.5852 1.60693 18.4562 3.07538 19.9246C4.54383 21.3931 6.41475 22.3931 8.45155 22.7982C10.4884 23.2034 12.5996 22.9954 14.5182 22.2007C16.4368 21.406 18.0767 20.0602 19.2304 18.3335C20.3842 16.6068 21 14.5767 21 12.5C20.9971 9.71613 19.8899 7.04712 17.9214 5.07862C15.9529 3.11013 13.2839 2.00294 10.5 2ZM10.5 21.3846C8.74279 21.3846 7.02504 20.8635 5.56398 19.8873C4.10291 18.911 2.96415 17.5234 2.29169 15.9C1.61923 14.2765 1.44329 12.4901 1.7861 10.7667C2.12892 9.04325 2.9751 7.46016 4.21763 6.21763C5.46017 4.97509 7.04325 4.12891 8.7667 3.7861C10.4901 3.44328 12.2765 3.61923 13.9 4.29169C15.5234 4.96414 16.911 6.1029 17.8873 7.56397C18.8635 9.02504 19.3846 10.7428 19.3846 12.5C19.3819 14.8555 18.445 17.1138 16.7794 18.7794C15.1138 20.445 12.8555 21.3819 10.5 21.3846ZM5.65385 10.4808C5.65385 10.2411 5.7249 10.0069 5.85803 9.80767C5.99116 9.60844 6.18037 9.45315 6.40175 9.36145C6.62313 9.26975 6.86673 9.24576 7.10175 9.29251C7.33676 9.33926 7.55264 9.45464 7.72207 9.62408C7.89151 9.79352 8.0069 10.0094 8.05365 10.2444C8.10039 10.4794 8.0764 10.723 7.9847 10.9444C7.893 11.1658 7.73772 11.355 7.53848 11.4881C7.33925 11.6213 7.10501 11.6923 6.86539 11.6923C6.54407 11.6923 6.23591 11.5647 6.0087 11.3375C5.78149 11.1102 5.65385 10.8021 5.65385 10.4808ZM15.3462 10.4808C15.3462 10.7204 15.2751 10.9546 15.142 11.1539C15.0088 11.3531 14.8196 11.5084 14.5983 11.6001C14.3769 11.6918 14.1333 11.7158 13.8983 11.669C13.6632 11.6223 13.4474 11.5069 13.2779 11.3375C13.1085 11.168 12.9931 10.9521 12.9464 10.7171C12.8996 10.4821 12.9236 10.2385 13.0153 10.0171C13.107 9.79575 13.2623 9.60654 13.4615 9.47341C13.6608 9.34028 13.895 9.26923 14.1346 9.26923C14.4559 9.26923 14.7641 9.39687 14.9913 9.62408C15.2185 9.85129 15.3462 10.1594 15.3462 10.4808ZM15.2381 15.3269C14.1992 17.123 12.4718 18.1538 10.5 18.1538C8.52822 18.1538 6.80178 17.124 5.76289 15.3269C5.70445 15.235 5.66521 15.1322 5.64753 15.0247C5.62985 14.9172 5.6341 14.8073 5.66001 14.7015C5.68593 14.5956 5.73298 14.4962 5.79833 14.409C5.86369 14.3219 5.946 14.2489 6.04031 14.1943C6.13462 14.1398 6.23898 14.1049 6.34712 14.0918C6.45526 14.0787 6.56493 14.0876 6.66955 14.1179C6.77417 14.1483 6.87157 14.1995 6.95589 14.2684C7.04021 14.3374 7.1097 14.4227 7.16019 14.5192C7.91438 15.8226 9.09967 16.5385 10.5 16.5385C11.9003 16.5385 13.0856 15.8216 13.8388 14.5192C13.9459 14.3337 14.1223 14.1983 14.3293 14.1428C14.5362 14.0873 14.7567 14.1163 14.9423 14.2234C15.1279 14.3305 15.2633 14.507 15.3188 14.7139C15.3742 14.9208 15.3452 15.1414 15.2381 15.3269Z" fill="white"/>
</g>
</svg>
